<?xml version="1.0" encoding="UTF-8"?>
<svg id="uuid-e4489317-df71-4e37-8b17-6dd2c3201446" data-name="Layer 2" xmlns="http://www.w3.org/2000/svg" width="240" height="78.81" viewBox="0 0 240 78.81">
  <g id="uuid-c7e24657-aa6e-4036-b6ae-e13ddcfcf8da" data-name="Layer 1">
    <polygon points="167.19 31.99 181.87 7.8 148.15 34.15 163.2 37.18 143.41 69.15 182.65 34.82 167.19 31.99" fill="#fcee20"/>
    <g>
      <path d="M203.72,65.58c.83-.63,1.46-1.43,1.88-2.38,1.08-2.44-.03-3.67-3.35-3.67h-4.88l-5.99,13.57h2.96l2.3-5.26h.92c.31-.01.56.09.77.32.28.43.45.9.49,1.41l.63,3.53h3.42l-.83-4.04c-.26-1.15-.67-1.85-1.22-2.07v-.03c1.05-.25,2.04-.72,2.9-1.38ZM199.09,65.64h-1.45l1.71-3.91h1.52c1.51,0,1.98.62,1.45,1.85-.27.61-.72,1.12-1.29,1.47-.57.39-1.25.59-1.94.59Z" fill="#221e1f"/>
      <path d="M193.36,63.85c1.25-2.86.15-4.3-3.31-4.3h-4.8l-5.99,13.57h2.98l2.08-4.73h0s1.52,0,1.52,0c1.61.04,3.09-.37,4.46-1.21,1.38-.78,2.39-1.89,3.04-3.34ZM190.19,63.96c-.64,1.47-1.84,2.22-3.59,2.22h-1.28l1.93-4.38h1.31c1.73,0,2.28.69,1.64,2.16Z" fill="#221e1f"/>
      <polygon points="214.29 67.45 215.33 65.1 210.73 65.1 212.13 61.9 217.09 61.9 218.13 59.53 210.21 59.53 204.24 73.1 212.48 73.1 213.52 70.74 208.24 70.74 209.69 67.45 214.29 67.45" fill="#221e1f"/>
      <polygon points="226.7 69.69 226.7 69.69 226.71 69.69 226.7 69.69" fill="#221e1f"/>
      <path d="M225.38,67.07c-.24-.64-.92-1.26-2.04-1.84-.96-.49-1.53-.89-1.69-1.19-.19-.32-.19-.64-.02-.97.23-.49.6-.84,1.11-1.05.61-.28,1.26-.4,1.93-.39,1.26,0,2.21.31,2.87.92l1.19-2.72c-1.02-.39-2.11-.56-3.19-.51-1.55-.03-3.01.32-4.38,1.05-1.26.66-2.19,1.64-2.76,2.94-.76,1.72-.25,3.03,1.54,3.93,1.14.56,1.8,1,1.98,1.33.19.34.2.69.03,1.05-.23.48-.59.83-1.07,1.05-.64.29-1.3.43-2,.4-1.42,0-2.5-.46-3.23-1.38l-1.28,2.93c.8.51,1.99.75,3.58.75,1.58.05,3.08-.29,4.49-1.02,1.26-.67,2.17-1.66,2.73-2.97.39-.73.46-1.5.23-2.3Z" fill="#221e1f"/>
      <path d="M232.23,60.37c-1.27.65-2.19,1.63-2.76,2.94-.77,1.72-.24,3.01,1.53,3.93,1.14.56,1.79,1,1.97,1.33.19.34.2.69.03,1.05-.22.46-.6.83-1.07,1.05-.62.29-1.31.43-2,.4-1.43,0-2.5-.46-3.22-1.37l-1.28,2.93c.8.51,2,.75,3.58.75,1.58.05,3.08-.29,4.48-1.02,1.26-.67,2.17-1.66,2.73-2.97.37-.71.46-1.53.23-2.3-.23-.65-.92-1.26-2.04-1.84-.96-.49-1.53-.89-1.7-1.19-.18-.32-.19-.64-.03-.97.24-.49.61-.84,1.12-1.05.61-.28,1.25-.4,1.93-.39,1.26,0,2.21.31,2.87.92l1.2-2.72c-1.02-.39-2.11-.56-3.19-.51-1.55-.02-3.01.32-4.38,1.05Z" fill="#221e1f"/>
      <path d="M183.42,59.53h-3.29l-4.11,4.11c-.36.41-.68.8-.97,1.16h-.04c.06-.37.08-.75.06-1.12l-.25-4.15h-3.62l1.1,6.78-7.45,6.79h3.55l4.48-4.48c.26-.29.5-.6.72-.92h.04c-.07.29-.11.58-.11.88l.52,4.51h3.53l-1.33-6.84,7.17-6.73Z" fill="#221e1f"/>
      <polygon points="160.96 67.45 165.57 67.45 166.6 65.1 162 65.1 163.41 61.9 168.36 61.9 169.4 59.53 161.49 59.53 155.51 73.1 163.75 73.1 164.79 70.74 159.52 70.74 160.96 67.45" fill="#221e1f"/>
    </g>
    <g>
      <polygon points="72.71 22.49 60.54 22.49 46.78 54.32 92.46 54.32 95.92 46.31 62.42 46.31 72.71 22.49" fill="#221e1f"/>
      <polygon points="20.56 34.93 22.4 30.77 51.13 30.77 54.56 22.49 13.76 22.49 0 54.32 12.18 54.32 17.36 42.07 46.11 42.07 49.46 34.93 20.56 34.93" fill="#221e1f"/>
      <path d="M170.22,30.63L188.81,0l-45.02,35.19,16.39,3.3-24.95,40.33,51.58-45.15-16.59-3.03ZM163.2,37.18l-15.04-3.03,33.72-26.35-14.68,24.18,15.46,2.83-39.24,34.34,19.78-31.97Z" fill="#221e1f"/>
      <polygon points="133.87 54.27 147.2 54.27 127.35 22.49 112.18 22.49 98.42 54.32 128.13 54.32 122.81 46.31 113.92 46.31 120.27 31.93 133.87 54.27" fill="#221e1f"/>
      <polygon points="192.96 54.32 198.22 42.07 219.44 42.07 214.14 54.32 226.33 54.32 240 22.49 227.9 22.49 222.52 35.1 201.27 35.1 206.72 22.49 194.55 22.49 180.79 54.32 192.96 54.32" fill="#221e1f"/>
    </g>
  </g>
</svg>